<svg width="113" height="30" viewBox="0 0 113 30" fill="none" xmlns="http://www.w3.org/2000/svg">
<path d="M15 21C11.6863 21 9 18.3137 9 15C9 11.6863 11.6863 9 15 9C18.3137 9 21 11.6863 21 15C21 18.3137 18.3137 21 15 21Z" fill="url(#paint0_linear_20_3)"/>
<path d="M3.37605 17.0496C1.6373 17.3562 0.445476 19.0358 1.11293 20.6704C2.04477 22.9524 3.5314 24.9856 5.45871 26.5744C8.21462 28.8461 11.6906 30.06 15.2616 29.9977C18.8326 29.9354 22.2642 28.6009 24.9392 26.2343C26.8098 24.5793 28.2246 22.4954 29.0763 20.1823C29.6863 18.5254 28.4365 16.8884 26.6881 16.6427C24.9398 16.397 23.37 17.6696 22.5064 19.2096C22.0383 20.0443 21.4306 20.8016 20.7026 21.4457C19.1678 22.8036 17.1989 23.5692 15.1501 23.605C13.1012 23.6407 11.1068 22.9443 9.52562 21.6408C8.77552 21.0225 8.14182 20.2869 7.64483 19.469C6.72804 17.9601 5.1148 16.743 3.37605 17.0496Z" fill="url(#paint1_linear_20_3)"/>
<path d="M29.884 16.8745C29.9606 16.2604 30 15.6348 30 15C30 6.71573 23.2843 0 15 0C6.71573 0 0 6.71573 0 15C0 15.8147 0.06495 16.6142 0.18996 17.3937C0.87894 16.4505 1.95426 15.7772 3.11576 15.5724C4.37245 15.3508 5.51458 15.6556 6.48027 16.2253C6.42322 15.8251 6.3937 15.416 6.3937 15C6.3937 10.2469 10.2469 6.3937 15 6.3937C19.7531 6.3937 23.6063 10.2469 23.6063 15C23.6063 15.3134 23.5895 15.6229 23.5569 15.9276C24.5022 15.3243 25.6332 14.9796 26.8971 15.1573C28.0647 15.3214 29.1625 15.9564 29.884 16.8745Z" fill="url(#paint2_linear_20_3)"/>
<path d="M39.736 18.08L39.628 15.836L43.648 11.6H45.808L42.184 15.5L41.104 16.652L39.736 18.08ZM37.996 20V11.6H39.928V20H37.996ZM43.744 20L40.756 16.34L42.028 14.96L46.012 20H43.744ZM46.7468 20V11.096H48.6188V20H46.7468ZM50.3562 20V13.544H52.2282V20H50.3562ZM51.2922 12.644C50.9482 12.644 50.6682 12.544 50.4522 12.344C50.2362 12.144 50.1282 11.896 50.1282 11.6C50.1282 11.304 50.2362 11.056 50.4522 10.856C50.6682 10.656 50.9482 10.556 51.2922 10.556C51.6362 10.556 51.9162 10.652 52.1322 10.844C52.3482 11.028 52.4562 11.268 52.4562 11.564C52.4562 11.876 52.3482 12.136 52.1322 12.344C51.9242 12.544 51.6442 12.644 51.2922 12.644ZM57.8896 13.448C58.4016 13.448 58.8576 13.552 59.2576 13.76C59.6656 13.96 59.9856 14.272 60.2176 14.696C60.4496 15.112 60.5656 15.648 60.5656 16.304V20H58.6936V16.592C58.6936 16.072 58.5776 15.688 58.3456 15.44C58.1216 15.192 57.8016 15.068 57.3856 15.068C57.0896 15.068 56.8216 15.132 56.5816 15.26C56.3496 15.38 56.1656 15.568 56.0296 15.824C55.9016 16.08 55.8376 16.408 55.8376 16.808V20H53.9656V13.544H55.7536V15.332L55.4176 14.792C55.6496 14.36 55.9816 14.028 56.4136 13.796C56.8456 13.564 57.3376 13.448 57.8896 13.448ZM62.2624 20V13.544H64.1344V20H62.2624ZM63.1984 12.644C62.8544 12.644 62.5744 12.544 62.3584 12.344C62.1424 12.144 62.0344 11.896 62.0344 11.6C62.0344 11.304 62.1424 11.056 62.3584 10.856C62.5744 10.656 62.8544 10.556 63.1984 10.556C63.5424 10.556 63.8224 10.652 64.0384 10.844C64.2544 11.028 64.3624 11.268 64.3624 11.564C64.3624 11.876 64.2544 12.136 64.0384 12.344C63.8304 12.544 63.5504 12.644 63.1984 12.644ZM67.4198 18.68L67.4678 16.4L70.4798 13.544H72.7118L69.8198 16.484L68.8478 17.276L67.4198 18.68ZM65.8718 20V11.096H67.7438V20H65.8718ZM70.6838 20L68.4998 17.288L69.6758 15.836L72.9518 20H70.6838ZM80.0841 20.144C79.4121 20.144 78.7681 20.056 78.1521 19.88C77.5361 19.696 77.0401 19.46 76.6641 19.172L77.3241 17.708C77.6841 17.964 78.1081 18.176 78.5961 18.344C79.0921 18.504 79.5921 18.584 80.0961 18.584C80.4801 18.584 80.7881 18.548 81.0201 18.476C81.2601 18.396 81.4361 18.288 81.5481 18.152C81.6601 18.016 81.7161 17.86 81.7161 17.684C81.7161 17.46 81.6281 17.284 81.4521 17.156C81.2761 17.02 81.0441 16.912 80.7561 16.832C80.4681 16.744 80.1481 16.664 79.7961 16.592C79.4521 16.512 79.1041 16.416 78.7521 16.304C78.4081 16.192 78.0921 16.048 77.8041 15.872C77.5161 15.696 77.2801 15.464 77.0961 15.176C76.9201 14.888 76.8321 14.52 76.8321 14.072C76.8321 13.592 76.9601 13.156 77.2161 12.764C77.4801 12.364 77.8721 12.048 78.3921 11.816C78.9201 11.576 79.5801 11.456 80.3721 11.456C80.9001 11.456 81.4201 11.52 81.9321 11.648C82.4441 11.768 82.8961 11.952 83.2881 12.2L82.6881 13.676C82.2961 13.452 81.9041 13.288 81.5121 13.184C81.1201 13.072 80.7361 13.016 80.3601 13.016C79.9841 13.016 79.6761 13.06 79.4361 13.148C79.1961 13.236 79.0241 13.352 78.9201 13.496C78.8161 13.632 78.7641 13.792 78.7641 13.976C78.7641 14.192 78.8521 14.368 79.0281 14.504C79.2041 14.632 79.4361 14.736 79.7241 14.816C80.0121 14.896 80.3281 14.976 80.6721 15.056C81.0241 15.136 81.3721 15.228 81.7161 15.332C82.0681 15.436 82.3881 15.576 82.6761 15.752C82.9641 15.928 83.1961 16.16 83.3721 16.448C83.5561 16.736 83.6481 17.1 83.6481 17.54C83.6481 18.012 83.5161 18.444 83.2521 18.836C82.9881 19.228 82.5921 19.544 82.0641 19.784C81.5441 20.024 80.8841 20.144 80.0841 20.144ZM88.0485 20.096C87.3125 20.096 86.6645 19.952 86.1045 19.664C85.5525 19.376 85.1245 18.984 84.8205 18.488C84.5165 17.984 84.3645 17.412 84.3645 16.772C84.3645 16.124 84.5125 15.552 84.8085 15.056C85.1125 14.552 85.5245 14.16 86.0445 13.88C86.5645 13.592 87.1525 13.448 87.8085 13.448C88.4405 13.448 89.0085 13.584 89.5125 13.856C90.0245 14.12 90.4285 14.504 90.7245 15.008C91.0205 15.504 91.1685 16.1 91.1685 16.796C91.1685 16.868 91.1645 16.952 91.1565 17.048C91.1485 17.136 91.1405 17.22 91.1325 17.3H85.8885V16.208H90.1485L89.4285 16.532C89.4285 16.196 89.3605 15.904 89.2245 15.656C89.0885 15.408 88.9005 15.216 88.6605 15.08C88.4205 14.936 88.1405 14.864 87.8205 14.864C87.5005 14.864 87.2165 14.936 86.9685 15.08C86.7285 15.216 86.5405 15.412 86.4045 15.668C86.2685 15.916 86.2005 16.212 86.2005 16.556V16.844C86.2005 17.196 86.2765 17.508 86.4285 17.78C86.5885 18.044 86.8085 18.248 87.0885 18.392C87.3765 18.528 87.7125 18.596 88.0965 18.596C88.4405 18.596 88.7405 18.544 88.9965 18.44C89.2605 18.336 89.5005 18.18 89.7165 17.972L90.7125 19.052C90.4165 19.388 90.0445 19.648 89.5965 19.832C89.1485 20.008 88.6325 20.096 88.0485 20.096ZM96.3388 13.448C96.8508 13.448 97.3068 13.552 97.7068 13.76C98.1148 13.96 98.4348 14.272 98.6668 14.696C98.8988 15.112 99.0148 15.648 99.0148 16.304V20H97.1428V16.592C97.1428 16.072 97.0268 15.688 96.7948 15.44C96.5708 15.192 96.2508 15.068 95.8348 15.068C95.5388 15.068 95.2708 15.132 95.0308 15.26C94.7988 15.38 94.6148 15.568 94.4788 15.824C94.3508 16.08 94.2868 16.408 94.2868 16.808V20H92.4148V11.096H94.2868V15.332L93.8668 14.792C94.0988 14.36 94.4308 14.028 94.8628 13.796C95.2948 13.564 95.7868 13.448 96.3388 13.448ZM104.672 20V18.74L104.552 18.464V16.208C104.552 15.808 104.428 15.496 104.18 15.272C103.94 15.048 103.568 14.936 103.064 14.936C102.72 14.936 102.38 14.992 102.044 15.104C101.716 15.208 101.436 15.352 101.204 15.536L100.532 14.228C100.884 13.98 101.308 13.788 101.804 13.652C102.3 13.516 102.804 13.448 103.316 13.448C104.3 13.448 105.064 13.68 105.608 14.144C106.152 14.608 106.424 15.332 106.424 16.316V20H104.672ZM102.704 20.096C102.2 20.096 101.768 20.012 101.408 19.844C101.048 19.668 100.772 19.432 100.58 19.136C100.388 18.84 100.292 18.508 100.292 18.14C100.292 17.756 100.384 17.42 100.568 17.132C100.76 16.844 101.06 16.62 101.468 16.46C101.876 16.292 102.408 16.208 103.064 16.208H104.78V17.3H103.268C102.828 17.3 102.524 17.372 102.356 17.516C102.196 17.66 102.116 17.84 102.116 18.056C102.116 18.296 102.208 18.488 102.392 18.632C102.584 18.768 102.844 18.836 103.172 18.836C103.484 18.836 103.764 18.764 104.012 18.62C104.26 18.468 104.44 18.248 104.552 17.96L104.84 18.824C104.704 19.24 104.456 19.556 104.096 19.772C103.736 19.988 103.272 20.096 102.704 20.096ZM110.758 20.096C109.998 20.096 109.406 19.904 108.982 19.52C108.558 19.128 108.346 18.548 108.346 17.78V12.116H110.218V17.756C110.218 18.028 110.29 18.24 110.434 18.392C110.578 18.536 110.774 18.608 111.022 18.608C111.318 18.608 111.57 18.528 111.778 18.368L112.282 19.688C112.09 19.824 111.858 19.928 111.586 20C111.322 20.064 111.046 20.096 110.758 20.096ZM107.35 15.128V13.688H111.826V15.128H107.35Z" fill="#D9D9D9"/>
<defs>
<linearGradient id="paint0_linear_20_3" x1="15" y1="9" x2="15" y2="21" gradientUnits="userSpaceOnUse">
<stop stop-color="#2D4BB6"/>
<stop offset="1" stop-color="#3F7CF5"/>
</linearGradient>
<linearGradient id="paint1_linear_20_3" x1="15.0789" y1="16.6122" x2="15.0789" y2="30" gradientUnits="userSpaceOnUse">
<stop stop-color="#2D4BB6"/>
<stop offset="1" stop-color="#3F7CF5"/>
</linearGradient>
<linearGradient id="paint2_linear_20_3" x1="13.4534" y1="17.0133" x2="23.034" y2="-8.3678" gradientUnits="userSpaceOnUse">
<stop stop-color="#B71010"/>
<stop offset="1" stop-color="#FC5533"/>
</linearGradient>
</defs>
</svg>
